<?xml version="1.0" encoding="utf-8"?><svg xmlns="http://www.w3.org/2000/svg" xmlns:xlink="http://www.w3.org/1999/xlink"><symbol id="24-support" viewBox="0 0 24 24" xml:space="preserve" xmlns="http://www.w3.org/2000/svg"><style/><path class="alight-grey" d="M18 18.9h-.8c-.8 0-1.6.3-2.1.9l-1.7 1.7c-.8.8-2.1.8-2.8 0l-1.7-1.7c-.6-.6-1.3-.9-2.1-.9H6c-1.7 0-3-1.3-3-3V5c0-1.6 1.3-3 3-3h12c1.7 0 3 1.3 3 3v10.9c0 1.6-1.3 3-3 3z"/><path class="apath-grey" d="M10.4 14.5H7.7c-.4 0-.8-.2-1.1-.6-.2-.3-.3-.8-.2-1.2.3-1.1 1.2-1.7 2-2.2.8-.5 1.2-.9 1.2-1.5 0-.5-.4-.9-.9-.9s-.9.4-.9.9c0 .4-.3.8-.8.8-.4 0-.8-.3-.8-.8 0-1.3 1.1-2.4 2.4-2.4C10 6.6 11 7.7 11 9c0 1.4-1.1 2.1-1.9 2.7-.5.4-1 .7-1.3 1.1h2.4c.4 0 .8.3.8.8s-.2.9-.6.9zM16 14.5c-.4 0-.8-.3-.8-.8V13h-2c-.5 0-.9-.3-1.2-.7-.2-.4-.2-1 0-1.4.7-1.2 1.5-2.5 2.2-3.7.3-.5.9-.7 1.5-.6.6.2 1 .7 1 1.3v3.5h.3c.4 0 .8.3.8.8s-.3.8-.8.8h-.2v.7c0 .5-.3.8-.8.8zm-.7-5.9c-.6 1-1.2 2-1.8 2.9h1.8V8.6z"/></symbol><symbol viewBox="0 0 24 24" id="book-saved" xmlns="http://www.w3.org/2000/svg"><g class="bst0"><path class="bst1" d="M12 5.3v16c.2 0 .4 0 .5-.1 1.9-1.1 5.3-2.2 7.4-2.4h.3c1-.1 1.7-1 1.7-2V4.7c0-1.2-1-2.1-2.2-2-2.1.2-5.3 1.2-7.1 2.3l-.2.1c0 .1-.2.2-.4.2z"/><path class="bst2" d="M2 4.7v12.1c0 1 .8 1.9 1.7 2H4c2.2.3 5.5 1.4 7.5 2.5.1.1.3.1.5.1v-16c-.2 0-.4-.1-.5-.1l-.2-.1C9.5 4.1 6.3 3 4.2 2.8 3 2.6 2 3.5 2 4.7zM19 2.8v4.3c0 .4-.4.6-.8.4L17 6.7l-1.2.8c-.3.2-.8 0-.8-.4V3.9c1.3-.5 2.8-.9 4-1.1z"/></g></symbol><symbol fill="none" viewBox="0 0 24 24" id="category-2" xmlns="http://www.w3.org/2000/svg"><path opacity=".4" d="M18.67 2h-1.9c-2.18 0-3.33 1.15-3.33 3.33v1.9c0 2.18 1.15 3.33 3.33 3.33h1.9c2.18 0 3.33-1.15 3.33-3.33v-1.9C22 3.15 20.85 2 18.67 2zM7.24 13.43h-1.9C3.15 13.43 2 14.58 2 16.76v1.9C2 20.85 3.15 22 5.33 22h1.9c2.18 0 3.33-1.15 3.33-3.33v-1.9c.01-2.19-1.14-3.34-3.32-3.34z" fill="#DC2626"/><path d="M6.29 10.58a4.29 4.29 0 100-8.58 4.29 4.29 0 000 8.58zM17.71 22a4.29 4.29 0 100-8.58 4.29 4.29 0 000 8.58z" fill="#DC2626"/></symbol><symbol viewBox="0 0 24 24" id="chart" xmlns="http://www.w3.org/2000/svg"><path class="dlight-grey" d="M21 22.8H3c-.4 0-.8-.3-.8-.8s.3-.8.8-.8h18c.4 0 .8.3.8.8s-.4.8-.8.8z"/><path class="dpath-grey" d="M5.6 8.4H4c-.5 0-1 .4-1 1V18c0 .5.5 1 1 1h1.6c.6 0 1-.5 1-1V9.4c0-.6-.5-1-1-1zM12.8 5.2h-1.6c-.6 0-1 .4-1 1V18c0 .5.4 1 1 1h1.6c.6 0 1-.5 1-1V6.2c0-.6-.5-1-1-1zM20 2h-1.6c-.6 0-1 .5-1 1v15c0 .5.4 1 1 1H20c.5 0 1-.5 1-1V3c0-.5-.5-1-1-1z"/></symbol><symbol fill="none" viewBox="0 0 16 16" id="close" xmlns="http://www.w3.org/2000/svg"><path opacity=".6" d="M8 8l7 7M8 8L1 1m7 7l-7 7m7-7l7-7" stroke="#212123" stroke-width="2" stroke-linecap="round" stroke-linejoin="round"/></symbol><symbol fill="none" viewBox="0 0 11 6" id="down" xmlns="http://www.w3.org/2000/svg"><path fill-rule="evenodd" clip-rule="evenodd" d="M.793.293a1 1 0 011.414 0L5.5 3.586 8.793.293a1 1 0 011.414 1.414l-4 4a1 1 0 01-1.414 0l-4-4a1 1 0 010-1.414z" fill="#18181B"/></symbol><symbol viewBox="0 0 20 14" id="hamburger" xmlns="http://www.w3.org/2000/svg"><path d="M19 14H1c-.6 0-1-.4-1-1s.4-1 1-1h18c.6 0 1 .4 1 1s-.4 1-1 1zm0-6H1c-.6 0-1-.4-1-1s.4-1 1-1h18c.6 0 1 .4 1 1s-.4 1-1 1zm0-6H1c-.6 0-1-.4-1-1s.4-1 1-1h18c.6 0 1 .4 1 1s-.4 1-1 1z"/></symbol><symbol viewBox="0 0 24 24" id="home" xmlns="http://www.w3.org/2000/svg"><path class="hlight-grey" d="M10.1 2.8l-7 5.6c-.7.6-1.2 1.9-1.1 2.9l1.3 8c.2 1.4 1.6 2.6 3 2.6h11.2c1.4 0 2.8-1.2 3-2.6l1.3-8c.2-1-.3-2.3-1.1-2.9l-6.9-5.5c-.9-.9-2.7-.9-3.7-.1z"/><path class="hpath-grey" d="M12 15.5c1.4 0 2.5-1.1 2.5-2.5s-1.1-2.5-2.5-2.5-2.5 1.1-2.5 2.5 1.1 2.5 2.5 2.5z"/></symbol><symbol fill="none" viewBox="0 0 88 28" id="logo" xmlns="http://www.w3.org/2000/svg"><g clip-path="url(#iclip0_9_386)" fill-rule="evenodd" clip-rule="evenodd"><path d="M22.163 24.935c.55.981 1.75 1.075 3.102 1.075 1.333 0 2.593-.094 3.58-1.075.539-.538 1.116-1.52 1.56-3.612.476-2.241.277-3.13-.023-3.63-.56-.945-1.812-1.056-3.125-1.056-1.352 0-2.597.111-3.556 1.055-.633.63-1.146 1.65-1.568 3.631-.447 2.112-.282 3.074.03 3.612zm10.397-8.872c1.075 1.295.723 3.555.363 5.26-.361 1.704-.99 3.963-2.598 5.261-1.698 1.371-3.954 1.371-5.453 1.371-1.537 0-3.74 0-4.872-1.371-1.192-1.446-.694-3.799-.382-5.26.373-1.761.926-3.928 2.616-5.261 1.734-1.372 3.882-1.372 5.454-1.372 1.536 0 3.736 0 4.872 1.372zm4.4 11.745l2.34-11.022h-5.052l.413-1.944h12.564l-.413 1.944h-5.07l-2.34 11.022h-2.443zm11.761-2.873c.55.981 1.752 1.075 3.104 1.075 1.331 0 2.591-.094 3.578-1.075.539-.538 1.117-1.52 1.561-3.612.476-2.241.276-3.13-.024-3.63-.559-.945-1.811-1.056-3.125-1.056-1.351 0-2.596.111-3.555 1.055-.634.63-1.146 1.65-1.567 3.631-.45 2.112-.284 3.074.028 3.612zm10.397-8.872c-1.134-1.372-3.336-1.372-4.872-1.372-1.573 0-3.719 0-5.454 1.372-1.69 1.333-2.242 3.5-2.617 5.26-.31 1.462-.81 3.815.383 5.261 1.133 1.371 3.337 1.371 4.872 1.371 1.5 0 3.757 0 5.453-1.371 1.608-1.298 2.236-3.557 2.598-5.26.362-1.706.712-3.966-.363-5.261zm-48.902 10.34c-.235.398-.449.728-.698.981-.325.333-.709.53-1.274.568-1.034-.022-1.64-.753-1.729-1.55L5.03 17.75c-.024-.148-.113-.425-.224-.425-.203 0-.274.334-.286.389L2.442 27.81H0l2.382-11.276s.379-1.777 2.307-1.817a2.19 2.19 0 012.125 1.806l1.492 8.49c.053.277.14.48.25.48.112 0 .284-.203.454-.48l5.178-8.651c.782-1.325 1.544-1.618 2.367-1.661 1.846.134 2.004 1.822 1.848 2.378-.005.036-2.267 10.731-2.267 10.731h-2.443L15.9 17.714c.074-.353-.066-.389-.14-.389-.13 0-.319.279-.406.425l-5.14 8.652zm68.748-9.32c.355-.278.748-.297 1.081-.297h6.624l.413-1.944h-7.457c-.628 0-1.482.093-2.282.722-.885.686-1.179 1.63-1.344 2.408-.152.721-.295 1.74.148 2.445.383.63 1.14.909 1.33.964l4.766 1.61c1.054.354 1.058.946.948 1.464-.094.445-.355 1.408-1.52 1.408H71.43c-.549 0-.616.063-.928-.387l-2.16-3.13.021-.091h1.665c1.481 0 2.259-.705 2.725-1.334.698-.932.956-1.917 1.154-2.836h-.003c.105-.703.097-1.415-.21-2.059-.52-1.129-1.618-1.184-2.526-1.184h-6.143c-.48 0-1.108.074-1.664.518-.625.5-.78 1.15-.893 1.687l-.22 1.038-2.055 9.723h2.444l2.054-9.723.078-.372c.055-.261.107-.501.413-.723.242-.186.431-.205.69-.205h3.961c.39 0 .981 0 1.286.391.168.212.288.571.185 1.279-.12.473-.319 1.094-.585 1.41-.443.518-1.028.574-1.455.574h-2.442c-.776 0-1.37.593-1.356 1.362.013.332.22.697.394.916l2.858 4.574s.338.517.99.517h12.327c.85 0 1.684-.092 2.509-.925.681-.686.985-1.594 1.16-2.408.128-.612.298-1.76-.321-2.5-.31-.372-.844-.65-1.655-.928l-4.418-1.5c-.966-.335-1.014-.89-.892-1.463.051-.242.168-.704.545-1z" fill="#ED1C24"/><path d="M42.867.164c-.503 0-1.183.075-1.823.577-.706.547-.94 1.301-1.073 1.922-.122.577-.235 1.39.118 1.953.307.503.91.725 1.064.77l3.805 1.287c.842.28.844.753.755 1.167-.075.355-.282 1.125-1.212 1.125h-5.734l-.33 1.553h6.354c.68 0 1.345-.074 2.003-.74.545-.547.788-1.272.926-1.922.104-.488.24-1.405-.255-1.997-.248-.297-.674-.519-1.321-.74l-3.528-1.2c-.772-.264-.81-.709-.713-1.167.041-.192.135-.562.436-.798.283-.222.597-.237.862-.237H51.7l-1.867 8.8h1.95l1.868-8.8H57.7l.33-1.554H42.867v.001zm33.408 9.009c-.222 1.05-1.18 1.481-1.846 1.464a1.76 1.76 0 01-1.564-1.058l-2.826-6.706c-.1-.223-.153-.252-.182-.252-.074 0-.226.087-.27.295l-1.606 7.604H66.09l1.916-9.07c.261-.887.983-1.418 1.855-1.405 1.213.013 1.612 1.104 1.612 1.104l2.802 6.649c.052.103.05.25.184.25.161 0 .2-.177.215-.25L76.287.164h1.891l-1.903 9.009zM31.102 6.51h3.975l-.794-4.216c-.028-.147-.072-.429-.205-.429s-.295.282-.386.43l-2.59 4.215zm1.415-5.295c.496-.782.92-1.101 1.67-1.158 1.407-.028 1.747 1.198 1.773 1.373.01.042 1.89 9.088 1.89 9.088h-2.054l-.51-2.618h-4.98l-1.602 2.618H26.65l5.867-9.303zM58.516 6.51h3.975l-.794-4.216c-.029-.147-.072-.429-.205-.429s-.295.282-.386.43l-2.59 4.215zm1.414-5.295c.497-.782.92-1.101 1.672-1.158 1.406-.028 1.746 1.198 1.772 1.373.01.042 1.89 9.088 1.89 9.088H63.21L62.7 7.9H57.72l-1.603 2.618h-2.054l5.866-9.303zM81.253 6.51h3.973l-.792-4.216c-.028-.147-.072-.429-.206-.429-.133 0-.294.282-.385.43l-2.59 4.215zm1.415-5.295L76.8 10.518h2.053L80.457 7.9h4.978l.512 2.618H88s-1.88-9.046-1.89-9.088c-.026-.175-.366-1.4-1.772-1.373-.752.057-1.176.376-1.67 1.158z" fill="#000002"/></g><defs><clipPath id="iclip0_9_386"><path fill="#fff" d="M0 0h88v28H0z"/></clipPath></defs></symbol><symbol fill="none" viewBox="0 0 14 15" id="question" xmlns="http://www.w3.org/2000/svg"><path d="M13.627 4.935v5.13c0 .84-.45 1.62-1.177 2.048l-4.455 2.572c-.727.42-1.627.42-2.362 0l-4.455-2.572A2.362 2.362 0 010 10.065v-5.13c0-.84.45-1.62 1.178-2.048L5.633.315a2.372 2.372 0 012.362 0l4.455 2.572a2.371 2.371 0 011.178 2.048z" fill="#808081" fill-opacity=".35"/><path d="M6.28 9.79c0-.26.043-.487.13-.68.087-.193.193-.367.32-.52a3.65 3.65 0 01.43-.42c.153-.133.297-.263.43-.39.133-.133.24-.273.32-.42a.984.984 0 00.13-.51c0-.32-.127-.58-.38-.78-.253-.2-.603-.3-1.05-.3-.4 0-.747.067-1.04.2a2.01 2.01 0 00-.75.59l-.73-.52c.28-.353.637-.627 1.07-.82.433-.2.94-.3 1.52-.3.48 0 .897.073 1.25.22a1.8 1.8 0 01.82.61c.2.26.3.577.3.95 0 .28-.043.52-.13.72-.087.2-.197.377-.33.53a4.363 4.363 0 01-.43.43c-.147.133-.287.267-.42.4a1.9 1.9 0 00-.33.44c-.087.16-.13.35-.13.57h-1zm.51 2.27a.632.632 0 01-.65-.64c0-.187.06-.34.18-.46a.657.657 0 01.47-.18c.187 0 .34.06.46.18s.18.273.18.46a.632.632 0 01-.64.64z" fill="#fff"/></symbol><symbol fill="none" viewBox="0 0 16 16" id="search" xmlns="http://www.w3.org/2000/svg"><path fill-rule="evenodd" clip-rule="evenodd" d="M6 2a4 4 0 100 8 4 4 0 000-8zM0 6a6 6 0 1110.89 3.476l4.817 4.817a1 1 0 01-1.414 1.414l-4.816-4.816A6 6 0 010 6z" fill="#A1A1AA"/></symbol></svg>